# xmcd
#
# Track frame offsets: 
#        150
#        11613
#        24550
#        41675
#        56455
#        69680
#        85173
#        99083
#        111752
#        129344
#        145878
#        165356
#
# Disc length: 2401 seconds
#
# Revision: 0
# Processed by: cddbd v1.5.2PL0 Copyright (c) Steve Scherf et al.
# Submitted via: ExactAudioCopy v0.99pb5
#
DISCID=91095f0c
DTITLE=David McLachlan - Can't Close a Blind Eye
DYEAR=2002
DGENRE=Country
TTITLE0=Jump Right In
TTITLE1=We Got Love
TTITLE2=My Brothers and I
TTITLE3=Tough Tough Road
TTITLE4=The Fool In Me
TTITLE5=Horses Running Free
TTITLE6=The Monument
TTITLE7=Massy Hall
TTITLE8=Closer To Infinity
TTITLE9=Can't Close a  Blind Eye
TTITLE10=Dusty Boots
TTITLE11=The Happiness Runs Free
EXTD=
EXTT0=
EXTT1=
EXTT2=
EXTT3=
EXTT4=
EXTT5=
EXTT6=
EXTT7=
EXTT8=
EXTT9=
EXTT10=
EXTT11=
PLAYORDER=
